<svg xmlns="http://www.w3.org/2000/svg" viewBox="0 0 297.6 67.1"><defs><style>.cls-1,.cls-6{fill:#dba726;}.cls-2{fill:#2b2b2b;}.cls-3{fill:#fff;}.cls-4,.cls-5{fill:none;stroke-linecap:round;stroke-linejoin:round;}.cls-4{stroke:#fff;stroke-width:0.5px;}.cls-5{stroke:#2b2b2b;stroke-width:0.75px;}.cls-6{font-size:36px;font-family:ArialRoundedMTBold, Arial Rounded MT Bold;}.cls-7{letter-spacing:-0.01em;}</style></defs><g id="OBJECTS"><path class="cls-1" d="M202.9,225.6l-27.7-1c-19.9-.7-35.8,14.3-35.4,33.5h0a33.9,33.9,0,0,0,20,30.6s6.8,2.6,12,2.8h3.8l27.3-1.1c19.5-.8,35.6-15.6,35.7-32.8h0C238.6,240.7,222.6,226.3,202.9,225.6Z" transform="translate(-139.7 -224.6)"/><path class="cls-2" d="M202.1,264.7a8.2,8.2,0,0,1-3.8-3.8,9,9,0,0,1-.4-4.9c.3-2.1,1.3-4.4,3.3-5.4s3.5-.8,5.2-1.4,5-5.1,8.2-6a7,7,0,0,1,3.8,0,11.5,11.5,0,0,1,8.4,7.7,11.7,11.7,0,0,1-2.4,11.2,14.9,14.9,0,0,1-9.1,4.5,41,41,0,0,1-10.5.1,7,7,0,0,1-7.5,2.4C199.1,268.7,200.7,267.5,202.1,264.7Z" transform="translate(-139.7 -224.6)"/><circle class="cls-3" cx="72.6" cy="31.6" r="1.6"/><circle class="cls-3" cx="79.3" cy="31.6" r="1.6"/><circle class="cls-3" cx="65.9" cy="31.6" r="1.6"/><path class="cls-2" d="M159.8,288.7a49,49,0,0,0,10.6,2.7l3.1-7.9a24.2,24.2,0,0,0,6,.9,6.4,6.4,0,0,0,3.3-.7,8,8,0,0,0,1.5-1.7,12.8,12.8,0,0,0,1.6-5c-.3-.4-.7-.4-1.2-.4a8,8,0,0,1-4.5-1.4,11.6,11.6,0,0,1-3.2-4.3,7.3,7.3,0,0,0,3.8,2.4,17.2,17.2,0,0,0,5.2.4,3.2,3.2,0,0,0,.9-.3,1.1,1.1,0,0,0,.6-.7,3.8,3.8,0,0,0-.3-1,6.6,6.6,0,0,1-.4-2.3,7.7,7.7,0,0,0,2.6-1.2,2.2,2.2,0,0,0,.5-2.4c-.3-.5-.9-.7-1.4-1a5.8,5.8,0,0,1-2.4-3.5c0-1.7.1-2.6.1-3.8,0-9-7.4-15.8-16.9-15.8S152.2,249,152.2,258c-.9,12,5.5,15.6,7,19,.7,1.8-1,6.2-2.8,9.9A22.1,22.1,0,0,0,159.8,288.7Z" transform="translate(-139.7 -224.6)"/><path class="cls-1" d="M173.6,253a6,6,0,0,0-11.8,2,5.6,5.6,0,0,0,1.9,3.3,5.8,5.8,0,0,1,2.1,3.6l.2.9,6.3-1.2v-.9a5.7,5.7,0,0,1,.8-4.2A4.7,4.7,0,0,0,173.6,253Z" transform="translate(-139.7 -224.6)"/><path class="cls-4" d="M170.9,262.5s-.6-5.9.4-8c0,0-2.7,2.3-3.7-1.3,0,0,.1,3.9-3.1,2.5a18.7,18.7,0,0,1,3.4,7.3" transform="translate(-139.7 -224.6)"/><path class="cls-3" d="M172.6,262.8l-6.4,1.1c-.4.1-.7-.1-.7-.4h0a.5.5,0,0,1,.5-.7l6.4-1.2a.8.8,0,0,1,.7.5h0C173.1,262.4,172.9,262.8,172.6,262.8Z" transform="translate(-139.7 -224.6)"/><path class="cls-3" d="M172.8,264l-6.4,1.1a.5.5,0,0,1-.7-.5h0c-.1-.3.1-.6.5-.7l6.4-1.1a.8.8,0,0,1,.7.5h0A.8.8,0,0,1,172.8,264Z" transform="translate(-139.7 -224.6)"/><path class="cls-3" d="M173,265.2l-6.4,1.1a.6.6,0,0,1-.7-.5h0c-.1-.3.1-.6.5-.7l6.4-1.1c.3-.1.6.1.7.5h0A.8.8,0,0,1,173,265.2Z" transform="translate(-139.7 -224.6)"/><line class="cls-5" x1="26.6" y1="39.4" x2="32.7" y2="38.3"/><line class="cls-5" x1="26.8" y1="40.5" x2="32.9" y2="39.5"/><line class="cls-4" x1="33.3" y1="23.8" x2="34.7" y2="22.2"/><line class="cls-4" x1="34.7" y1="26.5" x2="35.8" y2="26.2"/><line class="cls-4" x1="35.3" y1="29.4" x2="37.4" y2="29.6"/><line class="cls-4" x1="21.4" y1="26.2" x2="19.6" y2="25.3"/><line class="cls-4" x1="20.5" y1="29.1" x2="19" y2="29.1"/><line class="cls-4" x1="21" y1="32.3" x2="19.3" y2="33.2"/></g><g id="TEXTS"><text class="cls-6" transform="translate(109.9 47.2)"><tspan class="cls-7">T</tspan><tspan x="22" y="0">ho</tspan><tspan class="cls-2" x="65.5" y="0">ugh</tspan><tspan x="131.5" y="0">ts!!</tspan></text></g></svg>